<svg xmlns="http://www.w3.org/2000/svg" xmlns:xlink="http://www.w3.org/1999/xlink" width="500" zoomAndPan="magnify" viewBox="0 0 375 374.999991" height="500" preserveAspectRatio="xMidYMid meet" version="1.0"><defs><g/></defs><rect x="-37.5" width="450" fill="#ffffff" y="-37.499999" height="449.999989" fill-opacity="1"/><rect x="-37.5" width="450" fill="#000000" y="-37.499999" height="449.999989" fill-opacity="1"/><g fill="#ffffff" fill-opacity="1"><g transform="translate(24.166717, 208.782112)"><g><path d="M 16.046875 -32.765625 L 16.046875 -23.53125 L 34.5625 -23.53125 L 34.5625 -14.375 L 16.046875 -14.375 L 16.046875 0 L 4.1875 0 L 4.1875 -41.921875 L 37.078125 -41.921875 L 37.078125 -32.765625 Z M 16.046875 -32.765625 "/></g></g></g><g fill="#ffffff" fill-opacity="1"><g transform="translate(57.526106, 208.782112)"><g><path d="M 37.796875 -32.453125 L 37.796875 0 L 26.953125 0 L 26.953125 -3.46875 C 25.753906 -2.15625 24.316406 -1.160156 22.640625 -0.484375 C 20.960938 0.191406 19.1875 0.53125 17.3125 0.53125 C 13.113281 0.53125 9.765625 -0.703125 7.265625 -3.171875 C 4.773438 -5.648438 3.53125 -9.363281 3.53125 -14.3125 L 3.53125 -32.453125 L 14.90625 -32.453125 L 14.90625 -16.171875 C 14.90625 -13.734375 15.363281 -11.953125 16.28125 -10.828125 C 17.207031 -9.710938 18.546875 -9.15625 20.296875 -9.15625 C 22.097656 -9.15625 23.566406 -9.785156 24.703125 -11.046875 C 25.835938 -12.304688 26.40625 -14.234375 26.40625 -16.828125 L 26.40625 -32.453125 Z M 37.796875 -32.453125 "/></g></g></g><g fill="#ffffff" fill-opacity="1"><g transform="translate(93.880135, 208.782112)"><g><path d="M 24.796875 -33 C 28.828125 -33 32.066406 -31.800781 34.515625 -29.40625 C 36.972656 -27.007812 38.203125 -23.394531 38.203125 -18.5625 L 38.203125 0 L 26.828125 0 L 26.828125 -16.703125 C 26.828125 -21.140625 25.050781 -23.359375 21.5 -23.359375 C 19.539062 -23.359375 17.972656 -22.71875 16.796875 -21.4375 C 15.617188 -20.164062 15.03125 -18.25 15.03125 -15.6875 L 15.03125 0 L 3.65625 0 L 3.65625 -32.453125 L 14.5 -32.453125 L 14.5 -28.921875 C 15.769531 -30.242188 17.285156 -31.253906 19.046875 -31.953125 C 20.804688 -32.648438 22.722656 -33 24.796875 -33 Z M 24.796875 -33 "/></g></g></g><g fill="#ffffff" fill-opacity="1"><g transform="translate(130.473752, 208.782112)"><g><path d="M 38.15625 -44.4375 L 38.15625 0 L 27.3125 0 L 27.3125 -3.234375 C 25.195312 -0.722656 22.019531 0.53125 17.78125 0.53125 C 14.832031 0.53125 12.140625 -0.15625 9.703125 -1.53125 C 7.265625 -2.90625 5.335938 -4.867188 3.921875 -7.421875 C 2.503906 -9.984375 1.796875 -12.941406 1.796875 -16.296875 C 1.796875 -19.648438 2.503906 -22.59375 3.921875 -25.125 C 5.335938 -27.65625 7.265625 -29.597656 9.703125 -30.953125 C 12.140625 -32.316406 14.832031 -33 17.78125 -33 C 21.65625 -33 24.648438 -31.878906 26.765625 -29.640625 L 26.765625 -44.4375 Z M 20.1875 -8.5 C 22.144531 -8.5 23.757812 -9.1875 25.03125 -10.5625 C 26.3125 -11.945312 26.953125 -13.859375 26.953125 -16.296875 C 26.953125 -18.691406 26.320312 -20.566406 25.0625 -21.921875 C 23.800781 -23.273438 22.175781 -23.953125 20.1875 -23.953125 C 18.1875 -23.953125 16.546875 -23.273438 15.265625 -21.921875 C 13.992188 -20.566406 13.359375 -18.691406 13.359375 -16.296875 C 13.359375 -13.859375 13.992188 -11.945312 15.265625 -10.5625 C 16.546875 -9.1875 18.1875 -8.5 20.1875 -8.5 Z M 20.1875 -8.5 "/></g></g></g><g fill="#ffffff" fill-opacity="1"><g transform="translate(167.18714, 208.782112)"><g><path d="M 3.65625 -32.453125 L 15.03125 -32.453125 L 15.03125 0 L 3.65625 0 Z M 9.34375 -36.046875 C 7.269531 -36.046875 5.59375 -36.625 4.3125 -37.78125 C 3.03125 -38.945312 2.390625 -40.390625 2.390625 -42.109375 C 2.390625 -43.816406 3.03125 -45.25 4.3125 -46.40625 C 5.59375 -47.570312 7.269531 -48.15625 9.34375 -48.15625 C 11.414062 -48.15625 13.09375 -47.601562 14.375 -46.5 C 15.65625 -45.40625 16.296875 -44 16.296875 -42.28125 C 16.296875 -40.488281 15.65625 -39 14.375 -37.8125 C 13.09375 -36.632812 11.414062 -36.046875 9.34375 -36.046875 Z M 9.34375 -36.046875 "/></g></g></g><g fill="#ffffff" fill-opacity="1"><g transform="translate(180.841712, 208.782112)"><g><path d="M 26.046875 -1.3125 C 25.085938 -0.71875 23.921875 -0.265625 22.546875 0.046875 C 21.171875 0.367188 19.703125 0.53125 18.140625 0.53125 C 13.910156 0.53125 10.65625 -0.503906 8.375 -2.578125 C 6.101562 -4.648438 4.96875 -7.742188 4.96875 -11.859375 L 4.96875 -22.765625 L 0.234375 -22.765625 L 0.234375 -31.265625 L 4.96875 -31.265625 L 4.96875 -39.703125 L 16.34375 -39.703125 L 16.34375 -31.265625 L 23.78125 -31.265625 L 23.78125 -22.765625 L 16.34375 -22.765625 L 16.34375 -11.984375 C 16.34375 -10.816406 16.648438 -9.90625 17.265625 -9.25 C 17.890625 -8.59375 18.722656 -8.265625 19.765625 -8.265625 C 21.078125 -8.265625 22.234375 -8.601562 23.234375 -9.28125 Z M 26.046875 -1.3125 "/></g></g></g><g fill="#ffffff" fill-opacity="1"><g transform="translate(202.521944, 208.782112)"><g><path d="M 44.078125 -41.921875 L 44.078125 0 L 32.21875 0 L 32.21875 -16.34375 L 16.046875 -16.34375 L 16.046875 0 L 4.1875 0 L 4.1875 -41.921875 L 16.046875 -41.921875 L 16.046875 -26.171875 L 32.21875 -26.171875 L 32.21875 -41.921875 Z M 44.078125 -41.921875 "/></g></g></g><g fill="#ffffff" fill-opacity="1"><g transform="translate(245.703786, 208.782112)"><g><path d="M 36.828125 -16.171875 C 36.828125 -16.085938 36.769531 -15.148438 36.65625 -13.359375 L 13.0625 -13.359375 C 13.539062 -11.679688 14.46875 -10.390625 15.84375 -9.484375 C 17.21875 -8.585938 18.941406 -8.140625 21.015625 -8.140625 C 22.578125 -8.140625 23.925781 -8.359375 25.0625 -8.796875 C 26.195312 -9.242188 27.347656 -9.960938 28.515625 -10.953125 L 34.5 -4.734375 C 31.34375 -1.222656 26.726562 0.53125 20.65625 0.53125 C 16.863281 0.53125 13.53125 -0.179688 10.65625 -1.609375 C 7.78125 -3.046875 5.550781 -5.039062 3.96875 -7.59375 C 2.394531 -10.15625 1.609375 -13.054688 1.609375 -16.296875 C 1.609375 -19.484375 2.378906 -22.34375 3.921875 -24.875 C 5.460938 -27.414062 7.585938 -29.40625 10.296875 -30.84375 C 13.015625 -32.28125 16.070312 -33 19.46875 -33 C 22.695312 -33 25.628906 -32.328125 28.265625 -30.984375 C 30.898438 -29.648438 32.984375 -27.710938 34.515625 -25.171875 C 36.054688 -22.640625 36.828125 -19.640625 36.828125 -16.171875 Z M 19.53125 -24.921875 C 17.769531 -24.921875 16.300781 -24.421875 15.125 -23.421875 C 13.945312 -22.421875 13.195312 -21.0625 12.875 -19.34375 L 26.171875 -19.34375 C 25.847656 -21.0625 25.097656 -22.421875 23.921875 -23.421875 C 22.742188 -24.421875 21.28125 -24.921875 19.53125 -24.921875 Z M 19.53125 -24.921875 "/></g></g></g><g fill="#ffffff" fill-opacity="1"><g transform="translate(279.063172, 208.782112)"><g><path d="M 14.5 -28.5625 C 15.65625 -30.039062 17.160156 -31.148438 19.015625 -31.890625 C 20.867188 -32.628906 22.992188 -33 25.390625 -33 L 25.390625 -22.765625 C 24.359375 -22.878906 23.5 -22.9375 22.8125 -22.9375 C 20.382812 -22.9375 18.476562 -22.273438 17.09375 -20.953125 C 15.71875 -19.640625 15.03125 -17.625 15.03125 -14.90625 L 15.03125 0 L 3.65625 0 L 3.65625 -32.453125 L 14.5 -32.453125 Z M 14.5 -28.5625 "/></g></g></g><g fill="#ffffff" fill-opacity="1"><g transform="translate(300.503837, 208.782112)"><g><path d="M 36.828125 -16.171875 C 36.828125 -16.085938 36.769531 -15.148438 36.65625 -13.359375 L 13.0625 -13.359375 C 13.539062 -11.679688 14.46875 -10.390625 15.84375 -9.484375 C 17.21875 -8.585938 18.941406 -8.140625 21.015625 -8.140625 C 22.578125 -8.140625 23.925781 -8.359375 25.0625 -8.796875 C 26.195312 -9.242188 27.347656 -9.960938 28.515625 -10.953125 L 34.5 -4.734375 C 31.34375 -1.222656 26.726562 0.53125 20.65625 0.53125 C 16.863281 0.53125 13.53125 -0.179688 10.65625 -1.609375 C 7.78125 -3.046875 5.550781 -5.039062 3.96875 -7.59375 C 2.394531 -10.15625 1.609375 -13.054688 1.609375 -16.296875 C 1.609375 -19.484375 2.378906 -22.34375 3.921875 -24.875 C 5.460938 -27.414062 7.585938 -29.40625 10.296875 -30.84375 C 13.015625 -32.28125 16.070312 -33 19.46875 -33 C 22.695312 -33 25.628906 -32.328125 28.265625 -30.984375 C 30.898438 -29.648438 32.984375 -27.710938 34.515625 -25.171875 C 36.054688 -22.640625 36.828125 -19.640625 36.828125 -16.171875 Z M 19.53125 -24.921875 C 17.769531 -24.921875 16.300781 -24.421875 15.125 -23.421875 C 13.945312 -22.421875 13.195312 -21.0625 12.875 -19.34375 L 26.171875 -19.34375 C 25.847656 -21.0625 25.097656 -22.421875 23.921875 -23.421875 C 22.742188 -24.421875 21.28125 -24.921875 19.53125 -24.921875 Z M 19.53125 -24.921875 "/></g></g></g><g fill="#ffffff" fill-opacity="1"><g transform="translate(333.863241, 208.782112)"><g><path d="M 8.4375 0.53125 C 6.519531 0.53125 4.898438 -0.101562 3.578125 -1.375 C 2.265625 -2.65625 1.609375 -4.273438 1.609375 -6.234375 C 1.609375 -8.222656 2.257812 -9.835938 3.5625 -11.078125 C 4.863281 -12.316406 6.488281 -12.9375 8.4375 -12.9375 C 10.4375 -12.9375 12.070312 -12.316406 13.34375 -11.078125 C 14.625 -9.835938 15.265625 -8.222656 15.265625 -6.234375 C 15.265625 -4.273438 14.613281 -2.65625 13.3125 -1.375 C 12.019531 -0.101562 10.394531 0.53125 8.4375 0.53125 Z M 8.4375 0.53125 "/></g></g></g></svg>